<svg xmlns="http://www.w3.org/2000/svg" width="24" height="24" viewBox="0 0 64 64">
  <path d="M 15 2 H 49 C 50.0999985 2 51 2.9000001 51 4 V 56 C 51 57.0999985 50.0999985 58 49 58 H 47 V 62 H 43 V 58 H 21 V 62 H 17 V 58 H 15 C 13.8999996 58 13 57.0999985 13 56 V 4 C 13 2.9000001 13.8999996 2 15 2 Z M 17 6 V 54 H 47 V 6 Z M 24 10 H 40 C 41.0999985 10 42 10.8999996 42 12 V 20 C 42 21.1000004 41.0999985 22 40 22 H 24 C 22.8999996 22 22 21.1000004 22 20 V 12 C 22 10.8999996 22.8999996 10 24 10 Z M 26 14 V 18 H 38 V 14 Z M 32 28 C 38.0999985 28 43 32.9000015 43 39 C 43 45.0999985 38.0999985 50 32 50 C 25.8999996 50 21 45.0999985 21 39 C 21 32.9000015 25.8999996 28 32 28 Z M 32 32 C 28.1000004 32 25 35.0999985 25 39 C 25 42.9000015 28.1000004 46 32 46 C 35.9000015 46 39 42.9000015 39 39 C 39 35.0999985 35.9000015 32 32 32 Z M 29.2000008 35.0999985 L 32 37.9000015 L 34.7999992 35.0999985 L 37.5999985 37.9000015 L 34.7999992 40.7000008 L 37.5999985 43.5 L 34.7999992 46.2999992 L 32 43.5 L 29.2000008 46.2999992 L 26.3999996 43.5 L 29.2000008 40.7000008 L 26.3999996 37.9000015 Z" fill="#000000"/>
</svg>
