<svg xmlns="http://www.w3.org/2000/svg" width="16" height="16" viewBox="0 0 16 16">
  <path d="M 15 4.6999998 v -0.7 c -1.159 -1.163 -2.734 -1.91 -4.4840002 -1.999 c -0.112 -0.012 -0.222 -0.018 -0.334 -0.018 c -0.874 0 -1.6569999 0.394 -2.1789999 1.013 c -0.556 -0.617 -1.357 -1.007 -2.2490001 -1.007 c -0.09 0 -0.178 0.004 -0.266 0.012 c -1.7539999 0.089 -3.3299999 0.836 -4.4879999 1.999 l 0 0.7 l -1 0.3 v 10 l 6.6999998 -1.4 l 0.3 0.4 h 2 l 0.3 -0.4 l 6.6999998 1.4 v -10 Z M 5.48 11.3100004 c -1.275 0.037 -2.467 0.358 -3.526 0.902 l 0.046 -7.7919998 c 0.885 -0.835 2.066 -1.365 3.369 -1.42 c 0.806 0.054 1.534 0.303 2.1589999 0.701 l -0.019 7.869 c -0.555 -0.166 -1.193 -0.262 -1.854 -0.262 c -0.062 0 -0.124 0.001 -0.185 0.003 Z M 14 12.1899996 c -1.013 -0.522 -2.2049999 -0.843 -3.4679999 -0.88 c -0.056 -0.001 -0.108 -0.002 -0.161 -0.002 c -0.66 0 -1.2970001 0.096 -1.899 0.274 l 0.047 -7.902 c 0.601 -0.381 1.322 -0.627 2.096 -0.679 c 1.324 0.055 2.5009999 0.586 3.3859999 1.4220001 l -0.003 7.7680001 Z" fill="#000000"/>
</svg>
