<svg xmlns="http://www.w3.org/2000/svg" width="24" height="24" viewBox="0 0 24 24">
  <path d="M 2 5.5 C 2 4.0999999 3.0999999 3 4.5 3 h 15 C 20.8999996 3 22 4.0999999 22 5.5 v 10 c 0 1.4 -1.1 2.5 -2.5 2.5 h -3.0999999 c -0.4 0 -0.8 0.2 -1 0.5 L 13 21.6000004 c -0.4 0.6 -1.2 0.7 -1.8 0.3 l -0.3 -0.3 l -2.4000001 -3.2 c -0.1 -0.2 -0.5 -0.4 -0.9 -0.4 H 4.5 C 3.0999999 18 2 16.8999996 2 15.5 v -10 Z M 8.1999998 10.5 c 0 -0.7 -0.6 -1.3 -1.3 -1.3 s -1.3 0.6 -1.3 1.3 s 0.6 1.3 1.3 1.3 s 1.3 -0.6 1.3 -1.3 Z M 13.1999998 10.5 c 0 -0.7 -0.6 -1.3 -1.3 -1.3 s -1.3 0.6 -1.3 1.3 s 0.6 1.3 1.3 1.3 s 1.3 -0.6 1.3 -1.3 Z M 17 11.6999998 c 0.7 0 1.3 -0.6 1.3 -1.3 s -0.6 -1.2 -1.3 -1.2 s -1.3 0.6 -1.3 1.3 s 0.6 1.2 1.3 1.2 Z" fill="#000000"/>
</svg>
