<svg xmlns="http://www.w3.org/2000/svg" width="24" height="24" viewBox="0 0 1000 1000">
  <path d="M 888 37 q -10 -9 -22.5 -9 T 844 37 l -63 63 l 125 125 l 63 -63 q 9 -9 9 -21.5 t -9 -21.5 Z M 438 700 q -4 0 -7 3 t -6 3 l -150 50 h -12 q -8 0 -11 -7 q -2 -4 -2 -12 l 50 -150 q 0 -4 3 -8 l 3 -4 l 432 -425 l 125 125 Z M 63 156 q 0 -25 13 -46.5 T 110 75 t 46 -13 h 407 q 13 0 22 9 t 9 22.5 t -8.5 22.5 t -22.5 9 L 156 125 q -14 0 -22.5 8.5 T 125 156 v 688 q 0 14 8.5 22.5 T 156 875 h 688 q 14 0 22.5 -8.5 T 875 844 L 875 469 q 0 -14 8.5 -23 t 22.5 -9 t 23 9 t 9 23 v 375 q 0 25 -13 46.5 T 890.5 925 T 844 938 L 156 938 q -25 0 -46 -13 t -34 -34.5 T 63 844 Z" fill="#000000"/>
</svg>
