<svg xmlns="http://www.w3.org/2000/svg" width="24" height="24" viewBox="0 0 24 24">
  <path d="M 21 6 H 19 M 21 12 H 16 M 21 18 H 16 M 7 20 V 13.5609999 C 7 13.3529997 7 13.2489996 6.98 13.1499996 C 6.961 13.0609999 6.9320002 12.9759998 6.8909998 12.8959999 C 6.8439999 12.8050003 6.7789998 12.724 6.6490002 12.5620003 L 3.3510001 8.4379997 C 3.221 8.276 3.1559999 8.1949997 3.109 8.1040001 C 3.0680001 8.0240002 3.039 7.9390001 3.02 7.8499999 C 3 7.7509999 3 7.6469998 3 7.4390001 V 5.5999999 C 3 5.04 3 4.7600002 3.109 4.546 C 3.2049999 4.3579998 3.358 4.2049999 3.546 4.1090002 C 3.76 4 4.04 4 4.5999999 4 H 13.3999996 C 13.96 4 14.2399998 4 14.4540005 4.1090002 C 14.6420002 4.2049999 14.7950001 4.3579998 14.8909998 4.546 C 15 4.7600002 15 5.04 15 5.5999999 V 7.4390001 C 15 7.6469998 15 7.7509999 14.9799995 7.8499999 C 14.9610004 7.9390001 14.9320002 8.0240002 14.8909998 8.1040001 C 14.8439999 8.1949997 14.7790003 8.276 14.6490002 8.4379997 L 11.3509998 12.5620003 C 11.2209997 12.724 11.1560001 12.8050003 11.1090002 12.8959999 C 11.0679998 12.9759998 11.0389996 13.0609999 11.0200005 13.1499996 C 11 13.2489996 11 13.3529997 11 13.5609999 V 17 L 7 20 Z" fill="none" stroke="#000000" stroke-width="2" stroke-linecap="round" stroke-linejoin="round" stroke-miterlimit="4"/>
</svg>
