<svg xmlns="http://www.w3.org/2000/svg" width="24" height="24" viewBox="0 0 512 512">
  <path d="M 271.3099976 15.6300001 c 27 0.06 49.6100006 3.4000001 72.6900024 10.3800001 c 1.25 0.38 1.25 0.38 2.53 0.76 c 32.6100006 10.04 62.5499992 28.0300007 87.3700027 51.2400017 c 1.39 1.21 2.79 2.4200001 4.1900001 3.6300001 c 6.4899998 5.6900001 12.0900002 11.7600002 17.5 18.5 c 1.49 1.85 3 3.6900001 4.54 5.5 c 10.71 12.6899996 19.0699997 26.7099991 26.75 41.3800011 c 0.35 0.65 0.7 1.3 1.05 1.97 c 11.1700001 21.1499996 18.25 45.4799995 21.9400005 69.0299988 c 0.18 1.16 0.37 2.3099999 0.55 3.5 c 1.6 11.2700005 1.85 22.4400005 1.8200001 33.8100014 c 0 1.45 0 1.45 -0.01 2.9300001 c -0.06 24.0699997 -3.4000001 46.6800003 -10.3800001 69.75 c -0.25 0.84 -0.5 1.67 -0.76 2.53 c -10.04 32.6199989 -28.0300007 62.5499992 -51.2400017 87.3799973 c -1.21 1.39 -2.4200001 2.79 -3.6300001 4.1900001 c -5.6900001 6.4899998 -11.7700005 12.0900002 -18.5 17.5 c -1.79 1.49 -3.5699999 2.96 -5.3099999 4.4699998 c -37.1599998 31.8500004 -89.8099976 51.7099991 -138.8399963 52.1199989 c -0.96 0.01 -1.92 0.02 -2.9000001 0.03 c -57.5999985 0.47 -111.6100006 -12.8800001 -156.8899994 -50.2700005 c -0.86 -0.7 -0.86 -0.7 -1.73 -1.42 c -15.54 -12.8599997 -33.1199989 -28.2700005 -42.2700005 -46.5800018 c -0.5 -5.5300002 -0.74 -10.4099998 1.63 -15.5 c 4.5700002 -4.8099999 7.6799998 -6.75 14.3699999 -7 c 5.23 -0.05 7.9400001 1.21 12 4.5 c 2.1900001 2.3699999 4.1599998 4.8800001 6.1300001 7.4400001 c 32 40.2999992 75.9599991 65.5400009 126.8799973 73.5299988 c 1.0700001 0.18 2.1400001 0.35 3.25 0.53 c 57.5099983 6.9000001 113.2900009 -8.6499996 157.4299927 -42.2799988 c 3.54 -2.8099999 6.8400002 -5.8600001 10.1300001 -8.9499998 c 2.0999999 -1.97 4.2399998 -3.8199999 6.4499998 -5.6700001 c 38.3199997 -33.6699982 58.9599991 -86.4199982 62.5999985 -136.3800049 c 3.3699999 -57.6300011 -17.7900009 -111.2799988 -55.7999992 -154.0399933 c -36.1500015 -39.9099998 -88.3399963 -61.6500015 -141.5299988 -64.9599991 c -52.9799995 -2.55 -106.3000031 16.1200008 -145.7799988 51.5600014 c -0.77 0.72 -1.54 1.4400001 -2.3399999 2.1800001 c -2.03 1.88 -4.1100001 3.6600001 -6.2199998 5.4400001 c -12.9300003 11.3199997 -23.1200008 25.8999996 -32 40.5600014 c -0.41 0.68 -0.81 1.35 -1.23 2.05 c -12.21 20.5300007 -21.9500008 44.0699997 -24.7600002 67.9499969 c 0.55 -0.61 1.09 -1.23 1.65 -1.86 c 4.8600001 -5.21 9.0299997 -9.3699999 16.3600006 -10.1400003 c 6.4200001 0.29 10.5600004 2.45 15 7 c 2.0799999 3.28 2.3299999 6.02 2.3800001 9.8800001 c 0.03 1.01 0.06 2.02 0.09 3.05 c -1.1799999 7.8800001 -8.5299997 13.4300003 -13.8999996 18.7800007 c -0.92 0.92 -1.84 1.84 -2.78 2.78 c -1.9299999 1.9400001 -3.8699999 3.8699999 -5.8099999 5.8000002 c -2.48 2.47 -4.9499998 4.9499998 -7.4200001 7.4299998 c -2.3699999 2.3699999 -4.7399998 4.7399998 -7.1100001 7.1100001 c -0.89 0.89 -1.77 1.78 -2.6800001 2.7 c -0.83 0.82 -1.66 1.64 -2.52 2.49 c -0.73 0.72 -1.45 1.45 -2.2 2.1900001 c -4.77 4.1799998 -8.9700003 4.2399998 -15.1499996 4.0799999 c -4.1599998 -0.42 -5.8899999 -1.35 -8.8999996 -4.29 c -7.3400002 -9.2600002 -13.6099997 -19.3700008 -20.0799999 -29.2399998 c -1.87 -2.8499999 -3.75 -5.6999998 -5.6199999 -8.5500002 c -1.1900001 -1.8099999 -2.3800001 -3.6300001 -3.5699999 -5.4400001 c -0.84 -1.28 -0.84 -1.28 -1.7 -2.5799999 c -0.51 -0.79 -1.03 -1.5700001 -1.5599999 -2.3800001 c -0.68 -1.04 -0.68 -1.04 -1.38 -2.0899999 c -3.0799999 -4.8699999 -2.6099999 -10.1099997 -2.1199999 -15.7200003 c 2.28 -4.9099998 5.2399998 -7.48 10 -10 c 5.8499999 -1.66 10.71 -0.85 16 2 c 2.3199999 2.1300001 4.1199999 4.4899998 6 7 c 0.99 1.01 1.99 2.01 3.01 3.01 c 0.13 -0.63 0.27 -1.25 0.41 -1.9 c 8.4799995 -38.8300018 23.8199997 -75.4899979 49.5900002 -106.0999985 c 0.48 -0.58 0.96 -1.15 1.45 -1.75 c 10.1700001 -12.3000002 20.9500008 -23.4099998 33.5499992 -33.25 c 0.98 -0.81 1.97 -1.62 2.98 -2.45 c 28.9799995 -23.0499992 63.0299988 -38.7000008 99.2099991 -46.3600006 c 0.94 -0.2 1.87 -0.4 2.8399999 -0.6 c 15.4700003 -3.1199999 30.5499992 -3.96 46.2900009 -3.9300001 Z" fill="#000000"/>
  <path d="M 270 104 c 4.6399999 2.1500001 8.0900002 5.1999998 10 10 c 0.58 4.5700002 0.5 9.1099997 0.45 13.7200003 c 0 1.4 0 2.8 0 4.1999998 c 0 3.79 -0.02 7.5799999 -0.05 11.3699999 c -0.03 3.96 -0.03 7.9299998 -0.03 11.8900003 c -0.01 7.5 -0.04 15 -0.08 22.5 c -0.05 8.54 -0.07 17.0799999 -0.09 25.6299992 c -0.04 17.5699997 -0.11 35.1300011 -0.2 52.7000008 L 280.9299927 256.5499878 c 2.1900001 1.12 4.0599999 2.3900001 6.0300002 3.8499999 c 0.75 0.55 1.5 1.11 2.28 1.6799999 c 1.2 0.9 1.2 0.9 2.4300001 1.8099999 c 0.84 0.62 1.6799999 1.25 2.55 1.89 c 6.4299998 4.77 12.75 9.6700001 19.0499992 14.6099997 c 5.3499999 4.1900001 10.79 8.2399998 16.2700005 12.25 c 7.1700001 5.2399998 14.21 10.6000004 21.1900005 16.0799999 c 4.3200002 3.3900001 8.6899996 6.6799998 13.1199999 9.9200001 c 10.1000004 7.6199999 10.1000004 7.6199999 11.1899996 14.9399996 c 0.31 6.0700002 -1.49 10.0100002 -5.0599999 14.8800001 c -4.02 2.99 -7.9099998 4.2399998 -12.9399996 4.1799998 c -7.0300002 -1.4400001 -11.9300003 -4.8000002 -17.3799992 -9.3100004 c -1.58 -1.27 -3.1700001 -2.54 -4.75 -3.8099999 c -0.81 -0.65 -1.61 -1.3 -2.4400001 -1.96 c -3.8399999 -3.04 -7.7800002 -5.9200001 -11.7399998 -8.79 c -6.79 -4.96 -13.5100002 -10.0100002 -20.1900005 -15.1300001 c -6.6199999 -5.0700002 -13.2700005 -10.0699997 -20 -15 c -2.3299999 -1.72 -4.6700001 -3.4300001 -7 -5.1500001 c -1.77 -1.3099999 -3.55 -2.6199999 -5.3299999 -3.9300001 c -2.9000001 -2.1300001 -5.79 -4.2800002 -8.6899996 -6.4299998 c -0.9 -0.66 -1.8099999 -1.3200001 -2.74 -2 c -0.84 -0.63 -1.6799999 -1.26 -2.55 -1.91 c -0.74 -0.55 -1.49 -1.1 -2.25 -1.67 c -3.26 -3.1900001 -4.8000002 -6.5599999 -5.3499999 -11.0799999 c 0 -1.14 0 -2.28 0 -3.45 c -0.01 -1.3099999 -0.02 -2.6199999 -0.03 -3.97 c 0 -1.4400001 0.01 -2.8800001 0.01 -4.3299999 c -0.01 -1.51 -0.02 -3.03 -0.03 -4.5500002 c -0.02 -4.1399999 -0.02 -8.2799997 -0.01 -12.4200001 c 0 -3.46 -0.01 -6.9200001 -0.01 -10.3800001 c -0.01 -8.1599998 -0.01 -16.3199997 0 -24.4899998 c 0.01 -8.4099998 0 -16.8299999 -0.03 -25.2399998 c -0.02 -7.23 -0.03 -14.46 -0.02 -21.6900005 c 0 -4.3200002 0 -8.6300001 -0.02 -12.9499998 c -0.02 -4.0599999 -0.01 -8.1199999 0.01 -12.1700001 c 0 -1.49 0 -2.97 -0.01 -4.46 c -0.01 -2.03 0 -4.0700002 0.01 -6.0999999 c 0 -1.71 0 -1.71 0 -3.45 c 0.79 -5.0100002 3.3900001 -8.1000004 7 -11.5299997 c 5.1700001 -2.4000001 9.8999996 -2.3800001 15.5 -1.63 Z" fill="#000000"/>
</svg>
