<svg xmlns="http://www.w3.org/2000/svg" width="24" height="24" viewBox="0 0 24 24">
  <path d="M 11.9899998 2 C 6.4699998 2 2 6.48 2 12 S 6.4699998 22 11.9899998 22 C 17.5200005 22 22 17.5200005 22 12 S 17.5200005 2 11.9899998 2 Z M 18.9200001 8 H 15.9700003 C 15.6499996 6.75 15.1899996 5.5500002 14.5900002 4.4400001 C 16.4300003 5.0700002 17.9599991 6.3499999 18.9200001 8 Z M 12 4.04 C 12.8299999 5.2399998 13.4799995 6.5700002 13.9099998 8 H 10.0900002 C 10.5200005 6.5700002 11.1700001 5.2399998 12 4.04 Z M 4.2600002 14 C 4.0999999 13.3599997 4 12.6899996 4 12 S 4.0999999 10.6400003 4.2600002 10 H 7.6399999 C 7.5599999 10.6599998 7.5 11.3199997 7.5 12 S 7.5599999 13.3400002 7.6399999 14 H 4.2600002 Z M 5.0799999 16 H 8.0299997 C 8.3500004 17.25 8.8100004 18.4500008 9.4099998 19.5599995 C 7.5700002 18.9300003 6.04 17.6599998 5.0799999 16 Z M 8.0299997 8 H 5.0799999 C 6.04 6.3400002 7.5700002 5.0700002 9.4099998 4.4400001 C 8.8100004 5.5500002 8.3500004 6.75 8.0299997 8 Z M 12 19.9599991 C 11.1700001 18.7600002 10.5200005 17.4300003 10.0900002 16 H 13.9099998 C 13.4799995 17.4300003 12.8299999 18.7600002 12 19.9599991 Z M 14.3400002 14 H 9.6599998 C 9.5699997 13.3400002 9.5 12.6800003 9.5 12 S 9.5699997 10.6499996 9.6599998 10 H 14.3400002 C 14.4300003 10.6499996 14.5 11.3199997 14.5 12 S 14.4300003 13.3400002 14.3400002 14 Z M 14.5900002 19.5599995 C 15.1899996 18.4500008 15.6499996 17.25 15.9700003 16 H 18.9200001 C 17.9599991 17.6499996 16.4300003 18.9300003 14.5900002 19.5599995 Z M 16.3600006 14 C 16.4400005 13.3400002 16.5 12.6800003 16.5 12 S 16.4400005 10.6599998 16.3600006 10 H 19.7399998 C 19.8999996 10.6400003 20 11.3100004 20 12 S 19.8999996 13.3599997 19.7399998 14 H 16.3600006 Z" fill="#000000"/>
</svg>
