<svg xmlns="http://www.w3.org/2000/svg" width="24" height="24" viewBox="0 0 16 16">
  <path d="M 8 0 L 5.6900001 1.65 L 2.8570001 1.8710001 L 2.148 4.6209998 L 0.121 6.6110001 L 1.346 9.1739998 L 1.072 12 L 3.658 13.1759996 L 5.2639999 15.5179996 L 8 14.7580004 L 10.7360001 15.5179996 L 12.342 13.1759996 L 14.9280005 12 L 14.6540003 9.1739998 L 15.8800001 6.6100001 L 13.8529997 4.6199999 L 13.1429996 1.87 L 10.3120003 1.65 Z M 7 4 H 9 V 7 L 8.5 9 H 7.5 L 7 7 Z M 8 10 C 8.552 10 9 10.448 9 11 C 9 11.552 8.552 12 8 12 C 7.448 12 7 11.552 7 11 C 7 10.448 7.448 10 8 10 Z" fill="#000000"/>
</svg>
