<svg xmlns="http://www.w3.org/2000/svg" width="24" height="24" viewBox="0 0 1000 1000">
  <path d="M 813 875 l 10 -1 q 11 -2 21 -7 q 14 -7 21 -19 q 10 -15 10 -36 q 0 -29 -15 -65 q -19 -46 -55 -83 q -46 -46 -115 -72 q -81 -30 -190 -30 t -190 30 q -69 26 -114 71 q -37 37 -56 83 q -15 36 -15 66 q 0 22 10 36 q 8 12 22 19 q 9 5 21 7 q 5 1 10 1 Z M 405 475 q -43 -25 -67.5 -68 T 313 312 t 24.5 -95 t 67.5 -67.5 t 95 -24.5 t 95 24.5 t 68 67 t 25 95.5 t -25 96 t -68 67.5 t -95 24.5 t -95 -25 Z" fill="#000000"/>
</svg>
