<svg xmlns="http://www.w3.org/2000/svg" width="24" height="24" viewBox="0 0 24 24">
  <path d="M 15.4588003 5.4802599 L 18.5410004 8.5656796 L 19.6021996 7.5055599 L 16.5200005 4.4201398 L 15.4588003 5.4802599 Z M 9.2689695 18.8988991 L 5.1522899 14.7781 L 4.0910902 15.8381996 L 8.2077703 19.9591007 L 9.2689695 18.8988991 Z M 17.3031998 14.2922001 L 15.3859997 15.0124998 L 15.9136 16.4167004 L 17.8306999 15.6963997 L 17.3031998 14.2922001 Z M 9.0364199 8.6397896 L 9.7308702 6.74438 L 8.3224297 6.2283401 L 7.6279802 8.1237497 L 9.0364199 8.6397896 Z M 6.0443802 11.3964996 C 6.7558298 11.2003002 7.2971902 11.0625 7.7398701 10.7438002 L 6.8634601 9.5264597 C 6.6905298 9.6509705 6.4660101 9.7242804 5.6457 9.9504404 L 6.0443802 11.3964996 Z M 7.6279802 8.1237497 C 7.3350201 8.9233198 7.2433801 9.14153 7.10499 9.3039103 L 8.2466497 10.2768002 C 8.6004105 9.8617496 8.7823 9.3333702 9.0364199 8.6397896 L 7.6279802 8.1237497 Z M 7.7398701 10.7438002 C 7.92696 10.6091003 8.0971203 10.4523001 8.2466497 10.2768002 L 7.10499 9.3039103 C 7.0337 9.3875704 6.9526 9.4622898 6.8634601 9.5264597 L 7.7398701 10.7438002 Z M 15.3859997 15.0124998 C 14.6969995 15.2714005 14.1716003 15.4570999 13.7600002 15.8135004 L 14.7419996 16.9475002 C 14.9027996 16.8082008 15.1191998 16.7152004 15.9136 16.4167004 L 15.3859997 15.0124998 Z M 14.1036997 18.4001007 C 14.3290005 17.5813007 14.4020996 17.3568993 14.5263004 17.1837997 L 13.3074999 16.3094006 C 12.9902 16.7516994 12.8528996 17.2919006 12.6574001 18.0021992 L 14.1036997 18.4001007 Z M 13.7600002 15.8135004 C 13.5902996 15.9604998 13.4384003 16.1268997 13.3074999 16.3094006 L 14.5263004 17.1837997 C 14.5887003 17.0967999 14.6611004 17.0174999 14.7419996 16.9475002 L 13.7600002 15.8135004 Z M 5.1522899 14.7781 C 4.5061498 14.1313 4.0679898 13.691 3.7836599 13.3338003 C 3.4983499 12.9752998 3.46889 12.8200998 3.4684501 12.7504997 L 1.96848 12.7600002 C 1.97215 13.3422003 2.26127 13.8297005 2.6100199 14.2679005 C 2.95976 14.7073002 3.4711499 15.2175999 4.0910902 15.8381996 L 5.1522899 14.7781 Z M 5.6457 9.9504404 C 4.8004799 10.1835003 4.10396 10.3743 3.5829599 10.5834999 C 3.06341 10.7919998 2.5711601 11.0732002 2.28053 11.5777998 L 3.58038 12.3263998 C 3.615 12.2663002 3.7169299 12.1459999 4.1417999 11.9755001 C 4.5652299 11.8055 5.1633701 11.6393995 6.0443802 11.3964996 L 5.6457 9.9504404 Z M 3.4684501 12.7504997 C 3.46751 12.6015997 3.50616 12.4553003 3.58038 12.3263998 L 2.28053 11.5777998 C 2.07354 11.9371996 1.96586 12.3451996 1.96848 12.7600002 L 3.4684501 12.7504997 Z M 8.2077703 19.9591007 C 8.8316402 20.5835991 9.3446398 21.0986996 9.7864704 21.4505997 C 10.2270002 21.8015003 10.7179003 22.0921993 11.3041 22.0930996 L 11.3064003 20.5930996 C 11.2369003 20.5930004 11.0813999 20.5643997 10.7209997 20.2772999 C 10.3618002 19.9911995 9.9192305 19.5499001 9.2689695 18.8988991 L 8.2077703 19.9591007 Z M 12.6574001 18.0021992 C 12.4132996 18.8896999 12.2461996 19.4923992 12.0750999 19.9188004 C 11.9033003 20.3467007 11.7820997 20.4487 11.7215004 20.4832993 L 12.4650002 21.7861004 C 12.974 21.4955997 13.2573004 21.0004005 13.4671001 20.4775009 C 13.6775999 19.9531994 13.8694 19.2516003 14.1036997 18.4001007 L 12.6574001 18.0021992 Z M 11.3041 22.0930996 C 11.7111998 22.0937004 12.1113997 21.9878998 12.4650002 21.7861004 L 11.7215004 20.4832993 C 11.5950003 20.5555 11.4518995 20.5932999 11.3064003 20.5930996 L 11.3041 22.0930996 Z M 18.5410004 8.5656796 C 19.6044998 9.6302204 20.3402996 10.3695002 20.7917004 10.9787998 C 21.2353001 11.5774002 21.2863007 11.8958998 21.2320995 12.1464005 L 22.6982002 12.4633999 C 22.8880997 11.5853996 22.5382004 10.8162003 21.9969006 10.0857 C 21.4634991 9.3659201 20.6305008 8.5348597 19.6021996 7.5055599 L 18.5410004 8.5656796 Z M 17.8306999 15.6963997 C 19.1921005 15.1849003 20.2940006 14.7729998 21.0771008 14.3383999 C 21.8717995 13.8972998 22.5083008 13.3416004 22.6982002 12.4633999 L 21.2320995 12.1464005 C 21.1779995 12.3968 21.0000992 12.6654997 20.3491001 13.0268002 C 19.6865005 13.3945999 18.7112007 13.7631998 17.3031998 14.2922001 L 17.8306999 15.6963997 Z M 16.5200005 4.4201398 C 15.4841003 3.3831999 14.6480999 2.54353 13.9245996 2.0063801 C 13.1907997 1.46165 12.4174995 1.10912 11.5356998 1.30367 L 11.8587999 2.76845 C 12.1085997 2.7133501 12.4277 2.7632999 13.0304003 3.2107501 C 13.6433001 3.6657901 14.3875999 4.40801 15.4588003 5.4802599 L 16.5200005 4.4201398 Z M 9.7308702 6.74438 C 10.2524996 5.3207502 10.6161003 4.3340302 10.9812002 3.6631501 C 11.3402004 3.0033801 11.6090002 2.82357 11.8587999 2.76845 L 11.5356998 1.30367 C 10.6540003 1.49819 10.1005001 2.1433201 9.66362 2.9461801 C 9.2327805 3.7379301 8.8268805 4.8515401 8.3224297 6.2283401 L 9.7308702 6.74438 Z M 2.5306001 22.5300999 L 7.1838298 17.8721008 L 6.1226301 16.8120003 L 1.4694 21.4699001 L 2.5306001 22.5300999 Z" fill="#000000"/>
</svg>
