<svg xmlns="http://www.w3.org/2000/svg" width="24" height="24" viewBox="0 0 192 192">
  <path d="M 153.9329987 114.7180023 c -2.9530001 -9.5089998 -6.349 -17.5 -11.573 -30.5799999 C 143.1719971 49.7859993 128.9219971 22 96.1009979 22 c -33.1889992 0 -47.125 28.3400002 -46.2400017 62.1389999 c -5.2410002 13.0970001 -8.6199999 21.0330009 -11.573 30.5790005 c -6.276 20.2560005 -4.2459998 28.6359997 -2.6949999 28.8209991 c 3.323 0.407 12.9399996 -15.243 12.9399996 -15.243 c 0 9.0640001 4.651 20.8859997 14.7299995 29.4130001 c -4.8730001 1.499 -15.8199997 5.5320001 -13.217 9.9530001 c 2.105 3.5699999 36.2169991 2.2750001 46.0559998 1.165 c 9.8380003 1.11 43.9500008 2.405 46.0550003 -1.165 c 2.602 -4.4029999 -8.3620005 -8.4540005 -13.217 -9.9530001 c 10.0780001 -8.5459995 14.7299995 -20.3670006 14.7299995 -29.4130001 c 0 0 9.6169996 15.6499996 12.9399996 15.243 c 1.569 -0.203 3.5999999 -8.5830002 -2.677 -28.8209991 Z" fill="none" stroke="#000000" stroke-width="12" stroke-linecap="butt" stroke-linejoin="round" stroke-miterlimit="4"/>
</svg>
