<svg xmlns="http://www.w3.org/2000/svg" width="24" height="24" viewBox="0 0 24 24">
  <path d="M 17 21 L 7 21 M 17 21 L 17.8029995 21 C 18.9209995 21 19.4799995 21 19.9069996 20.7819996 C 20.2840004 20.5909996 20.5909996 20.2840004 20.7819996 19.9080009 C 21 19.4810009 21 18.9209995 21 17.8029995 V 9.2200003 C 21 8.7709999 21 8.5450001 20.9519997 8.3310003 C 20.9099998 8.1400003 20.8390007 7.9569998 20.743 7.7859998 C 20.6369991 7.5970001 20.4869995 7.4310002 20.1930008 7.1040001 L 17.4379997 4.0419998 C 17.0970001 3.664 16.9239998 3.4719999 16.7169991 3.3340001 C 16.5300007 3.21 16.3239994 3.119 16.1070004 3.063 C 15.8629999 3 15.6000004 3 15.0749998 3 H 6.1999998 C 5.0799999 3 4.52 3 4.092 3.2179999 C 3.7149999 3.4100001 3.4100001 3.7149999 3.2179999 4.092 C 3 4.52 3 5.0799999 3 6.1999998 V 17.7999992 C 3 18.9200001 3 19.4799995 3.2179999 19.9069996 C 3.4100001 20.2840004 3.7149999 20.5909996 4.092 20.7819996 C 4.5190001 21 5.079 21 6.197 21 H 7 M 17 21 V 17.1970005 C 17 16.0790005 17 15.5190001 16.7819996 15.092 C 16.5909996 14.7159996 16.2840004 14.4099998 15.9069996 14.2180004 C 15.4799995 14 14.9200001 14 13.8000002 14 H 10.1999998 C 9.0799999 14 8.5200005 14 8.092 14.2180004 C 7.7150002 14.4099998 7.4099998 14.7159996 7.2179999 15.092 C 7 15.5200005 7 16.0799999 7 17.2000008 V 21 M 15 7 H 9" fill="none" stroke="#000000" stroke-width="2" stroke-linecap="round" stroke-linejoin="round" stroke-miterlimit="4"/>
</svg>
