<svg xmlns="http://www.w3.org/2000/svg" width="24" height="24" viewBox="0 0 24 24">
  <path d="M 11.0174999 19 C 10.6601 19 10.3551998 18.7346992 10.2969999 18.3729992 C 10.2433996 18.0804005 10.0380001 17.8412991 9.7616997 17.75 C 9.5366001 17.6707001 9.3164997 17.5771999 9.1026001 17.4699993 C 8.8481998 17.3365002 8.5429001 17.3565006 8.3070002 17.5219994 C 8.0215998 17.7325001 7.6293998 17.6998997 7.3807998 17.4449997 L 6.4136 16.4529991 C 6.1532998 16.1860008 6.1194 15.7650995 6.3336 15.4580002 C 6.4987998 15.2104998 6.5226002 14.8914003 6.3959999 14.6210003 C 6.3126001 14.4331999 6.2391 14.2409 6.1757002 14.0450001 C 6.0848999 13.7363005 5.8341999 13.5051003 5.5253 13.4449997 C 5.1529002 13.3839998 4.8779001 13.0558996 4.875 12.6689997 V 11.4280005 C 4.8730001 10.9820995 5.1870999 10.6007004 5.6160002 10.5279999 C 5.9414001 10.4645004 6.2132001 10.2358999 6.3375001 9.9209995 C 6.3745999 9.8323002 6.4136 9.7442999 6.4545002 9.6569996 C 6.6199002 9.3304005 6.5970998 8.9371004 6.395 8.6330004 C 6.1423998 8.2728996 6.1812 7.7781 6.4867001 7.4640002 L 7.1975002 6.7350001 C 7.5479999 6.3752999 8.1008997 6.3288002 8.5039997 6.625 L 8.5263996 6.6409998 C 8.8274002 6.8488002 9.2103004 6.8864002 9.5443001 6.7410002 C 9.9015999 6.6090999 10.1648998 6.2941999 10.2375002 5.9120002 L 10.2473001 5.8779998 C 10.3275003 5.3720002 10.7536001 5.0001998 11.2535 5 H 12.1114998 C 12.6247997 4.9998002 13.0628996 5.3806 13.1469002 5.9000001 L 13.1625004 5.9699998 C 13.2313995 6.3362002 13.4811001 6.6392002 13.8216 6.77 C 14.1498003 6.9145002 14.5271997 6.8766999 14.8219995 6.6700001 L 14.8706999 6.6339998 C 15.2841997 6.3283 15.8528004 6.3754001 16.2133007 6.7449999 L 16.8675003 7.4169998 C 17.1954002 7.7551999 17.2366009 8.2868996 16.9650002 8.6739998 C 16.7521992 8.9975004 16.7250996 9.4132996 16.8938007 9.7629995 L 16.9358006 9.8629999 C 17.0723991 10.2045002 17.3680992 10.4519997 17.7215996 10.5209999 C 18.1837006 10.5983 18.5235004 11.0068998 18.5249996 11.4870005 V 12.6000004 C 18.5249004 13.0234003 18.2262993 13.3845997 17.8190994 13.4540005 C 17.4841995 13.5199003 17.2113991 13.7686005 17.1082993 14.1020002 C 17.0627995 14.2353001 17.0121002 14.3687 16.9561996 14.5019999 C 16.8260994 14.7950001 16.8549995 15.1364002 17.0323009 15.4020004 C 17.2661991 15.7357998 17.2299004 16.1942997 16.9465008 16.4850006 L 16.0387993 17.4169998 C 15.7791996 17.6832008 15.3697996 17.7175007 15.0716 17.4979992 C 14.8226004 17.3234997 14.5001001 17.3043003 14.2330999 17.448 C 14.0427999 17.5447006 13.8474998 17.6305008 13.6480999 17.7049999 C 13.3691998 17.8036995 13.1636 18.0485001 13.1099005 18.3460007 C 13.0530005 18.7203007 12.7400999 18.9972 12.3708 19 H 11.0174999 Z" fill="none" stroke="#000000" stroke-width="1.5" stroke-linecap="round" stroke-linejoin="round" stroke-miterlimit="4"/>
  <path d="M 13.9747 12 C 13.9747 13.2884998 12.9562998 14.3330002 11.6999998 14.3330002 C 10.4436998 14.3330002 9.4253302 13.2884998 9.4253302 12 C 9.4253302 10.7115002 10.4436998 9.6669903 11.6999998 9.6669903 C 12.9562998 9.6669903 13.9747 10.7115002 13.9747 12 Z" fill="none" stroke="#000000" stroke-width="1.5" stroke-linecap="round" stroke-linejoin="round" stroke-miterlimit="4"/>
</svg>
