<svg xmlns="http://www.w3.org/2000/svg" width="24" height="24" viewBox="0 0 25 25">
  <path d="M 18.9696999 4.9696698 L 11.9696999 11.9696999 L 13.0303001 13.0303001 L 20.0303001 6.0303302 Z M 18.75 5.5 V 9.6409998 H 20.25 V 5.5 Z M 19.5 4.75 H 15.4119997 V 6.25 H 19.5 Z M 12.5 4.75 H 9.5 C 6.8766499 4.75 4.75 6.8766499 4.75 9.5 V 15.5 C 4.75 18.1233997 6.8766499 20.25 9.5 20.25 H 15.5 C 18.1233997 20.25 20.25 18.1233997 20.25 15.5 V 12.5 H 18.75 V 15.5 C 18.75 17.2949009 17.2949009 18.75 15.5 18.75 H 9.5 C 7.70507 18.75 6.25 17.2949009 6.25 15.5 V 9.5 C 6.25 7.70507 7.70507 6.25 9.5 6.25 H 12.5 Z" fill="#000000"/>
</svg>
