<svg xmlns="http://www.w3.org/2000/svg" width="24" height="24" viewBox="0 0 1000 1000">
  <path d="M 231 631 L 13 419 q -13 -9 -14 -21 t 8 -22.5 t 24 -13.5 l 307 -43 l 131 -269 l 19 -19 q 9 -5 21.5 0 T 531 50 l 132 275 l 306 44 q 15 0 22.5 10 t 6.5 23.5 t -10 22.5 L 769 637 l 50 294 q 3 15 -3 26 t -17.5 14.5 T 775 969 L 500 825 L 225 963 q -9 6 -21 1.5 t -19 -16 t -4 -23.5 Z M 500.5 752.5 Q 508 754 513 762 l 231 119 l -44 -250 q 0 -9 4 -17.5 t 9 -13.5 l 181 -175 l -256 -38 q -9 0 -14.5 -4 T 613 369 L 500 137 L 388 362 q -6 10 -11 14.5 t -14 4.5 l -257 38 l 182 175 q 8 4 11 13 q 1 5 1 18 l -44 250 l 232 -119 q 5 -5 12.5 -3.5 Z" fill="#000000"/>
</svg>
