<svg xmlns="http://www.w3.org/2000/svg" width="24" height="24" viewBox="0 0 32 32">
  <path d="M 1 25 H 31 V 28 C 31 29.6599998 29.6599998 31 28 31 H 4 C 2.3399999 31 1 29.6599998 1 28 Z" fill="#000000"/>
  <path d="M 2 20 H 6 C 6.5500002 20 7 20.4500008 7 21 V 27 H 1 V 21 C 1 20.4500008 1.45 20 2 20 Z M 10 15 H 14 C 14.5500002 15 15 15.4499998 15 16 V 27 H 9 V 16 C 9 15.4499998 9.4499998 15 10 15 Z M 18 17 H 22 C 22.5499992 17 23 17.4500008 23 18 V 27 H 17 V 18 C 17 17.4500008 17.4500008 17 18 17 Z M 26 11 H 30 C 30.5499992 11 31 11.4499998 31 12 V 27 H 25 V 12 C 25 11.4499998 25.4500008 11 26 11 Z" fill="#000000"/>
  <path d="M 12 3 C 13.6599998 3 15 4.3400002 15 6 C 15 7.6599998 13.6599998 9 12 9 C 10.3400002 9 9 7.6599998 9 6 C 9 4.3400002 10.3400002 3 12 3 Z M 20 9 C 21.6599998 9 23 10.3400002 23 12 C 23 13.6599998 21.6599998 15 20 15 C 18.3400002 15 17 13.6599998 17 12 C 17 10.3400002 18.3400002 9 20 9 Z" fill="#000000"/>
  <path d="M 2 16 L 4 16 L 10.8000002 7.5 L 20 12 L 28.5 2 L 30 2" fill="none" stroke="#000000" stroke-width="2" stroke-linecap="round" stroke-linejoin="round" stroke-miterlimit="4"/>
</svg>
