<svg xmlns="http://www.w3.org/2000/svg" width="24" height="24" viewBox="0 0 36 36">
  <path d="M 33 6.6900001 h 0 c -0.18 -3.4100001 -9.4700003 -4.3299999 -15 -4.3299999 S 3 3.29 3 6.7800002 v 22.5900002 c 0 3.49 9.4300003 4.4299998 15 4.4299998 s 15 -0.93 15 -4.4299998 L 33 6.7800002 s 0 0 0 0 S 33 6.6999998 33 6.6900001 Z M 31 14.25 c -0.33 0.86 -5.0599999 2.45 -13 2.45 a 37.4500008 37.4500008 0 0 1 -11 -1.36 v 2.0799999 a 43.3199997 43.3199997 0 0 0 11 1.28 c 4 0 9.9300003 -0.48 13 -2 v 5.1700001 c -0.33 0.86 -5.0599999 2.45 -13 2.45 a 37.4500008 37.4500008 0 0 1 -11 -1.4 L 7 25 a 43.3199997 43.3199997 0 0 0 11 1.28 c 4 0 9.9300003 -0.48 13 -2 v 5.0999999 c -0.35 0.86 -5.0799999 2.45 -13 2.45 S 5.3000002 30.2000008 5 29.3700008 L 5 6.8200002 C 5.3000002 6 10 4.3600001 18 4.3600001 c 7.77 0 12.46 1.53 13 2.3699999 c -0.52 0.87 -5.21 2.3900001 -13 2.3900001 A 37.5999985 37.5999985 0 0 1 7 7.7600002 L 7 9.8500004 a 43.5299988 43.5299988 0 0 0 11 1.27 c 4 0 9.9300003 -0.48 13 -2 Z" fill="#000000"/>
</svg>
