<svg xmlns="http://www.w3.org/2000/svg" width="24" height="24" viewBox="0 0 24 24">
  <path d="M 18.4300003 4.25 C 18.2318993 4.2525902 18.0426006 4.3324399 17.9025002 4.4725299 C 17.7625008 4.6126299 17.6826 4.8018899 17.6800003 5 V 7.4299998 L 16.8400002 6.5900002 C 15.9709997 5.7136302 14.8923998 5.0739598 13.7067003 4.73172 C 12.5208998 4.3894801 11.2672997 4.35604 10.0649996 4.6345801 C 8.8626699 4.9131198 7.7515001 5.49439 6.8370299 6.3231802 C 5.9225502 7.1519799 5.2351198 8.2007799 4.8400102 9.3699999 C 4.7988701 9.4653101 4.7782402 9.5682096 4.77947 9.67202 C 4.7807002 9.7758303 4.80375 9.8782101 4.8471398 9.9725199 C 4.8905201 10.0668001 4.9532599 10.151 5.0312901 10.2194004 C 5.1093102 10.2879 5.20087 10.3392 5.3000102 10.3699999 C 5.38273 10.3844004 5.4672999 10.3844004 5.5500102 10.3699999 C 5.70646 10.3683996 5.8586102 10.3185997 5.9856801 10.2272997 C 6.1127501 10.1359997 6.20856 10.0078001 6.2600098 9.8599997 C 6.5393801 9.0300999 7.0084701 8.2768097 7.6300101 7.6599998 C 8.7095699 6.58464 10.1712999 5.9808502 11.6949997 5.9808502 C 13.2187996 5.9808502 14.6805 6.58464 15.7600002 7.6599998 L 16.6000004 8.5 H 14.1899996 C 13.9911003 8.5 13.8002996 8.5790195 13.6597004 8.7196703 C 13.5190001 8.8603201 13.4399996 9.0510902 13.4399996 9.25 C 13.4399996 9.4489098 13.5190001 9.6396799 13.6597004 9.7803297 C 13.8002996 9.9209805 13.9911003 10 14.1899996 10 H 18.4300003 C 18.5289001 10.0012999 18.6270008 9.9828596 18.7185993 9.9456501 C 18.8101997 9.9084396 18.8934002 9.85324 18.9633007 9.78333 C 19.0333004 9.7134104 19.0884991 9.6302004 19.1257 9.5386 C 19.1629009 9.44699 19.1814003 9.3488598 19.1800003 9.25 V 5 C 19.1800003 4.8010898 19.1009998 4.6103201 18.9603004 4.4696698 C 18.8197002 4.32902 18.6289005 4.25 18.4300003 4.25 Z" fill="#000000"/>
  <path d="M 18.6800003 13.6800003 C 18.5837002 13.6422005 18.4808006 13.6244001 18.3773994 13.6276999 C 18.2740002 13.6310997 18.1723995 13.6555004 18.0786991 13.6995001 C 17.9850998 13.7434998 17.9015007 13.8062 17.8328991 13.8836002 C 17.7642994 13.9610996 17.7122993 14.0516996 17.6800003 14.1499996 C 17.4006004 14.9799004 16.9316006 15.7332001 16.3099995 16.3500004 C 15.2305002 17.4253998 13.7687998 18.0291004 12.2449999 18.0291004 C 10.7213001 18.0291004 9.2595701 17.4253998 8.1800098 16.3500004 L 7.3400102 15.5100002 H 9.8100204 C 10.0088997 15.5100002 10.1997004 15.4309998 10.3402996 15.2903004 C 10.4809999 15.1497002 10.5600004 14.9589005 10.5600004 14.7600002 C 10.5600004 14.5611 10.4809999 14.3703003 10.3402996 14.2297001 C 10.1997004 14.0889997 10.0088997 14.0100002 9.8100204 14.0100002 H 5.5700102 C 5.4711499 14.0086002 5.3730202 14.0270996 5.2814202 14.0642996 C 5.1898198 14.1015997 5.1065998 14.1568003 5.0366902 14.2266998 C 4.9667702 14.2966003 4.9115801 14.3797998 4.8743601 14.4714003 C 4.8371501 14.5629997 4.8186698 14.6611004 4.8200102 14.7600002 V 19 C 4.8200102 19.1989002 4.8990302 19.3896999 5.03968 19.5303001 C 5.1803398 19.6709995 5.3710999 19.75 5.5700102 19.75 C 5.76893 19.75 5.9596901 19.6709995 6.1003399 19.5303001 C 6.2410002 19.3896999 6.3200102 19.1989002 6.3200102 19 V 16.5699997 L 7.1600099 17.4099998 C 8.0290098 18.2863998 9.1076097 18.9260006 10.2933998 19.2682991 C 11.4791002 19.6105003 12.7327003 19.6438999 13.9350004 19.3654003 C 15.1373997 19.0869007 16.2485008 18.5056 17.1630001 17.6767998 C 18.0774994 16.8479996 18.7649002 15.7992001 19.1599998 14.6300001 C 19.1926003 14.5361996 19.2061005 14.4368 19.1994991 14.3376999 C 19.1928997 14.2385998 19.1664009 14.1417999 19.1215992 14.0531998 C 19.0767994 13.9645004 19.0146008 13.8858004 18.9386997 13.8217001 C 18.8628998 13.7575998 18.7749004 13.7094002 18.6800003 13.6800003 Z" fill="#000000"/>
</svg>
