<svg xmlns="http://www.w3.org/2000/svg" width="24" height="24" viewBox="0 0 512 512">
  <g transform="translate(64 42.6666679)">
    <path d="M 256 42.6666679 L 128 42.6666679 L 128 0 L 256 0 L 256 42.6666679 Z M 170.6666718 170.6666718 L 128 170.6666718 L 128 341.3333435 L 170.6666718 341.3333435 L 170.6666718 170.6666718 Z M 256 170.6666718 L 213.3333282 170.6666718 L 213.3333282 341.3333435 L 256 341.3333435 L 256 170.6666718 Z M 384 85.3333359 L 384 128 L 341.3333435 128 L 341.3333435 426.6666565 L 42.6666679 426.6666565 L 42.6666679 128 L 0 128 L 0 85.3333359 L 384 85.3333359 Z M 298.6666565 128 L 85.3333359 128 L 85.3333359 384 L 298.6666565 384 L 298.6666565 128 Z" fill="#000000"/>
  </g>
</svg>
