<svg xmlns="http://www.w3.org/2000/svg" width="24" height="24" viewBox="0 0 1000 1000">
  <path d="M 991 515 q -11 19 -25 39 q -20 28 -42 55 q -27 33 -57 63 q -35 35 -72 63 q -42 32 -85 55 q -49 26 -99 39 q -55 15 -111 15 t -111 -15 q -50 -13 -99 -39 q -43 -23 -85 -55 q -37 -28 -72 -63 q -30 -30 -57 -63 q -22 -27 -42 -55 q -14 -20 -25 -39 l -9 -15 l 9 -15 q 11 -19 25 -39 q 20 -28 42 -55 q 27 -33 57 -63 q 35 -35 71 -63 q 42 -32 86 -55 q 49 -26 99 -39 q 55 -15 111 -15 t 111 15 q 50 13 99 39 q 44 23 86 55 q 36 28 71 63 q 30 30 57 63 q 22 27 42 55 q 14 20 25 39 q 5 8 9 15 Z M 181 631 v 0 q 70 69 144 108 q 90 48 181 48 q 95 0 184 -48 q 70 -37 141 -108 q 66 -66 94 -112 q 3 -3 6 -9.5 t 7 -9.5 q -52 -71 -107 -125 q -70 -70 -141 -108 q -90 -48 -184 -48 t -183 48 q -70 37 -142 108 q -29 25 -57 60 q -20 23 -49 65 q 57 81 106 131 Z M 579 365 q 36 21 56.5 56.5 T 656 500 t -21 78.5 t -56.5 56.5 t -78.5 21 t -78.5 -20.5 T 365 579 t -21 -79 t 21 -79 t 56.5 -56.5 T 500 344 t 79 21 Z M 311 608.5 q 30 50.5 80.5 80.5 t 109 30 t 109 -29 t 79.5 -78 q 30 -51 30 -112 t -30 -112 q -29 -49 -79.5 -78 T 500 281 T 390.5 310 T 311 388 q -30 51 -30 112 q 0 58 30 108.5 Z" fill="#000000"/>
</svg>
